<?xml version="1.0" encoding="UTF-8" standalone="no"?>
<!-- Created with Inkscape (http://www.inkscape.org/) -->

<svg
   xmlns:dc="http://purl.org/dc/elements/1.1/"
   xmlns:cc="http://creativecommons.org/ns#"
   xmlns:rdf="http://www.w3.org/1999/02/22-rdf-syntax-ns#"
   xmlns:svg="http://www.w3.org/2000/svg"
   xmlns="http://www.w3.org/2000/svg"
   xmlns:sodipodi="http://sodipodi.sourceforge.net/DTD/sodipodi-0.dtd"
   xmlns:inkscape="http://www.inkscape.org/namespaces/inkscape"
   id="svg3089"
   version="1.1"
   inkscape:version="0.92.1 r15371"
   width="320"
   height="220"
   sodipodi:docname="Project_kitchen_logo1.svg"
   inkscape:export-filename="C:\data\ProjectKitchen_Github\InfoTerminal\webpages\websites\pk_logo_anim\back\pk1.png"
   inkscape:export-xdpi="96"
   inkscape:export-ydpi="96">
  <metadata
     id="metadata3095">
    <rdf:RDF>
      <cc:Work
         rdf:about="">
        <dc:format>image/svg+xml</dc:format>
        <dc:type
           rdf:resource="http://purl.org/dc/dcmitype/StillImage" />
        <dc:title />
      </cc:Work>
    </rdf:RDF>
  </metadata>
  <defs
     id="defs3093" />
  <sodipodi:namedview
     pagecolor="#ffffff"
     bordercolor="#666666"
     borderopacity="1"
     objecttolerance="10"
     gridtolerance="10"
     guidetolerance="10"
     inkscape:pageopacity="0"
     inkscape:pageshadow="2"
     inkscape:window-width="1600"
     inkscape:window-height="837"
     id="namedview3091"
     showgrid="false"
     showguides="true"
     inkscape:guide-bbox="true"
     inkscape:zoom="2.18"
     inkscape:cx="65.936455"
     inkscape:cy="109.71129"
     inkscape:window-x="-9"
     inkscape:window-y="-9"
     inkscape:window-maximized="1"
     inkscape:current-layer="svg3089">
    <sodipodi:guide
       orientation="0,1"
       position="230.35714,417.85714"
       id="guide5354"
       inkscape:locked="false" />
  </sodipodi:namedview>
  <g
     inkscape:groupmode="layer"
     id="layer1"
     inkscape:label="Ebene"
     style="display:inline"
     transform="translate(0,-343)" />
  <rect
     style="display:inline;fill:#000000;fill-opacity:1;fill-rule:evenodd;stroke:none;stroke-width:0.41896024"
     id="rect3100"
     width="201.10092"
     height="178.05811"
     x="59.787895"
     y="23.853519"
     rx="22.26757"
     ry="22.26757" />
  <rect
     style="display:inline;fill:#ffffff;fill-opacity:1;stroke:none;stroke-width:0.41896024"
     id="rect3870"
     width="171.02892"
     height="148.41353"
     x="74.823891"
     y="38.675804"
     rx="7.422524"
     ry="7.422524" />
  <rect
     style="fill:#000000;fill-opacity:1;stroke:none;stroke-width:0.41896024"
     id="rect5314"
     width="187.44849"
     height="14.717116"
     x="63.925209"
     y="71.204506" />
  <rect
     style="fill:#000000;fill-opacity:1;stroke:none;stroke-width:0.49877688"
     id="rect5318"
     width="156.04622"
     height="88.411285"
     x="82.754845"
     y="92.493736"
     rx="8.2790108"
     ry="9.4317389" />
  <rect
     style="fill:#000000;fill-opacity:1;stroke:none;stroke-width:0.41896024"
     id="rect5374"
     width="61.957401"
     height="18.715902"
     x="90.968437"
     y="16.237707"
     rx="7.422524"
     ry="7.422524" />
  <rect
     style="fill:#000000;fill-opacity:1;stroke:none;stroke-width:0.41896024"
     id="rect5374-9"
     width="46.07439"
     height="18.715902"
     x="184.25694"
     y="16.237707"
     rx="7.422524"
     ry="7.422524" />
  <rect
     style="fill:#000000;fill-opacity:1;stroke:none;stroke-width:0.41896024"
     id="rect5394"
     width="24.65423"
     height="18.253613"
     x="82.245026"
     y="191.93382"
     rx="7.422524"
     ry="7.422524" />
  <rect
     style="fill:#000000;fill-opacity:1;stroke:none;stroke-width:0.41896024"
     id="rect5394-4"
     width="24.65423"
     height="18.253613"
     x="215.23566"
     y="191.93382"
     rx="7.422524"
     ry="7.422524" />
  <a
     id="a5436"
     transform="matrix(0.41896024,0,0,0.41896024,32.225383,-5.6556123)">
    <ellipse
       ry="19.345238"
       rx="27.380953"
       cy="146.63095"
       cx="156.54762"
       transform="matrix(0.70869563,0,0,1.003077,47.745866,-1.9392744)"
       id="path5320"
       style="fill:#000000;fill-opacity:1;stroke:none" />
  </a>
  <ellipse
     ry="7.184804"
     rx="7.1848035"
     cy="55.153477"
     cx="98.710388"
     style="fill:#ffffff;fill-opacity:1;stroke:none;stroke-width:0.31217894"
     id="path5320-8" />
  <a
     id="a5436-2"
     transform="matrix(0.41896024,0,0,0.41896024,55.638985,-5.6556123)">
    <ellipse
       transform="matrix(0.70869563,0,0,1.003077,47.745866,-1.9392744)"
       id="path5320-4"
       style="fill:#000000;fill-opacity:1;stroke:none"
       cx="156.54762"
       cy="146.63095"
       rx="27.380953"
       ry="19.345238" />
  </a>
  <ellipse
     style="fill:#ffffff;fill-opacity:1;stroke:none;stroke-width:0.31217894"
     id="path5320-8-5"
     cx="122.12399"
     cy="55.153473"
     rx="7.1848035"
     ry="7.1848044" />
  <a
     id="a5436-1"
     transform="matrix(0.41896024,0,0,0.41896024,79.052594,-5.6556123)">
    <ellipse
       transform="matrix(0.70869563,0,0,1.003077,47.745866,-1.9392744)"
       id="path5320-7"
       style="fill:#000000;fill-opacity:1;stroke:none"
       cx="156.54762"
       cy="146.63095"
       rx="27.380953"
       ry="19.345238" />
  </a>
  <ellipse
     style="fill:#ffffff;fill-opacity:1;stroke:none;stroke-width:0.31217894"
     id="path5320-8-1"
     cx="145.5376"
     cy="55.153473"
     rx="7.1848035"
     ry="7.1848044" />
  <a
     id="a5436-5"
     transform="matrix(0.41896024,0,0,0.41896024,102.46619,-5.6556123)">
    <ellipse
       transform="matrix(0.70869563,0,0,1.003077,47.745866,-1.9392744)"
       id="path5320-2"
       style="fill:#000000;fill-opacity:1;stroke:none"
       cx="156.54762"
       cy="146.63095"
       rx="27.380953"
       ry="19.345238" />
  </a>
  <ellipse
     style="fill:#009bff;fill-opacity:1;stroke:none;stroke-width:0.31217894"
     id="path5320-8-7"
     cx="168.95119"
     cy="55.153473"
     rx="7.1848035"
     ry="7.1848044" />
  <a
     id="a5436-14"
     transform="matrix(0.41896024,0,0,0.41896024,156.24665,-5.6556123)">
    <ellipse
       transform="matrix(0.70869563,0,0,1.003077,47.745866,-1.9392744)"
       id="path5320-23"
       style="fill:#000000;fill-opacity:1;stroke:none"
       cx="156.54762"
       cy="146.63095"
       rx="27.380953"
       ry="19.345238" />
  </a>
  <ellipse
     style="fill:#ff9b00;fill-opacity:1;stroke:none;stroke-width:0.31217894"
     id="path5320-8-2"
     cx="222.73164"
     cy="55.153473"
     rx="7.1848035"
     ry="7.1848044" />
  <path
     d="m 160.25544,105.00056 c 0.55884,-0.20611 1.13365,-0.37159 1.72587,-0.45432 0.37159,0.55012 0.75625,1.09155 1.12783,1.64022 0.81286,0 1.58217,0.28305 2.35874,0.44998 0.59948,-0.33386 1.16993,-0.71706 1.78393,-1.02333 0.45288,0.29321 0.88398,0.61835 1.28605,0.97833 -0.15676,0.70834 -0.48191,1.38621 -0.5661,2.10326 0.45288,0.62997 0.73158,1.35428 1.02769,2.06263 0.65318,0.2903 1.3354,0.51238 2.0002,0.77366 0.074,0.54142 0.0943,1.09155 0.009,1.63297 -0.69238,0.27433 -1.38621,0.54142 -2.06553,0.84334 -0.21192,0.70834 -0.54287,1.37604 -0.95946,1.98568 0.1916,0.71415 0.44707,1.40944 0.64303,2.12359 -0.41949,0.37159 -0.8564,0.72431 -1.33831,1.01171 -0.62706,-0.37449 -1.27299,-0.71705 -1.90586,-1.08284 -0.66044,0.28015 -1.3775,0.34402 -2.06697,0.50514 -0.41224,0.54432 -0.77222,1.12783 -1.1438,1.70119 -0.6082,-0.0639 -1.20332,-0.21483 -1.77958,-0.41369 -0.11032,-0.68657 -0.2395,-1.37024 -0.32805,-2.05971 -0.59512,-0.35418 -1.12638,-0.79835 -1.62281,-1.2759 -0.63721,0.0668 -1.27734,0.13064 -1.91746,0.15676 -0.45143,-0.4369 -0.64883,-1.11622 -0.88253,-1.70118 0.42529,-0.49062 0.86221,-0.97108 1.31218,-1.44137 -0.10886,-0.68657 -0.13644,-1.38621 -0.0305,-2.07424 -0.44127,-0.48771 -0.90285,-0.958 -1.34847,-1.44136 0.22644,-0.58352 0.40643,-1.23961 0.83173,-1.70555 0.62706,0.0101 1.25267,0.074 1.87972,0.10596 0.49498,-0.56029 1.07123,-1.04074 1.7012,-1.44136 0.0769,-0.65464 0.19014,-1.30493 0.26853,-1.95957 z"
     id="path5594"
     inkscape:connector-curvature="0"
     style="fill:#ffffff;stroke-width:0.14515279" />
  <path
     d="m 162.12065,108.54084 c 1.30057,-0.29756 2.7463,0.10451 3.67673,1.06832 1.17573,1.16123 1.46749,3.08886 0.67641,4.54184 -0.73302,1.51539 -2.53872,2.36018 -4.1775,2.0481 -1.80715,-0.30192 -3.2311,-2.02488 -3.19771,-3.85526 -0.0348,-1.77086 1.30492,-3.41834 3.02207,-3.803 z"
     id="path5596"
     inkscape:connector-curvature="0"
     style="fill:#000000;stroke-width:0.14515279" />
  <path
     d="m 179.86994,112.85478 c 0.98994,-0.22644 2.00746,-0.34546 3.02498,-0.33095 0.45143,1.14236 0.95366,2.26729 1.41234,3.40819 0.5211,0.0958 1.0422,0.1916 1.55459,0.32514 0.88833,-0.8622 1.79554,-1.70554 2.66936,-2.58372 0.93769,0.38466 1.81296,0.90576 2.64323,1.48347 -0.25692,1.14815 -0.55739,2.2876 -0.79689,3.44012 -0.0697,0.23224 0.19451,0.36433 0.31353,0.524 0.2874,0.25692 0.48626,0.62561 0.82882,0.81431 1.19751,-0.15387 2.38922,-0.35563 3.59108,-0.48772 0.48191,0.87237 0.95511,1.76506 1.22364,2.73033 -0.92317,0.79688 -1.85796,1.57926 -2.7608,2.39792 0.0856,0.54868 0.16257,1.10026 0.19305,1.65619 1.07703,0.58061 2.15552,1.15978 3.24271,1.72151 -0.0479,0.99866 -0.27289,1.97989 -0.56754,2.93209 -1.20187,0.11903 -2.40809,0.19741 -3.60995,0.31208 -0.35563,0.45578 -0.54288,1.02623 -0.88979,1.49362 0.48045,1.138 1.06832,2.22374 1.60684,3.33271 -0.64883,0.75044 -1.38911,1.41669 -2.17439,2.01908 -1.06832,-0.63868 -2.11342,-1.31509 -3.19046,-1.93925 -0.49787,0.27144 -1.01752,0.50078 -1.55023,0.69529 -0.24386,1.22944 -0.4311,2.4705 -0.65609,3.7043 -0.9493,0.22934 -1.92618,0.29901 -2.8987,0.32949 -0.53126,-1.138 -0.9943,-2.30648 -1.48782,-3.46044 -0.55303,-0.10741 -1.10171,-0.23225 -1.65039,-0.35562 -0.89849,0.87236 -1.8086,1.73457 -2.69984,2.6142 -0.91301,-0.37014 -1.75635,-0.8956 -2.56485,-1.45298 0.26563,-1.24541 0.59513,-2.47776 0.8564,-3.72462 -0.37885,-0.36288 -0.70253,-0.77512 -1.06542,-1.14961 -1.24396,0.0639 -2.48356,0.34256 -3.72462,0.47755 -0.59222,-0.77947 -0.91736,-1.76796 -1.27154,-2.68678 0.94495,-0.8535 1.92618,-1.6649 2.88564,-2.50243 -0.0668,-0.52255 -0.11757,-1.0451 -0.15386,-1.5691 -1.10461,-0.61545 -2.22955,-1.19461 -3.34722,-1.78684 0.0842,-1.0001 0.2874,-1.99294 0.61399,-2.94224 1.26573,-0.0885 2.53002,-0.19886 3.7943,-0.31498 0.23224,-0.46014 0.49497,-0.90431 0.75769,-1.34847 -0.56174,-1.11913 -1.0959,-2.25132 -1.65909,-3.37045 0.65173,-0.7635 1.41669,-1.4196 2.21213,-2.02924 1.10316,0.62126 2.15842,1.3267 3.26593,1.9436 0.43111,-0.23515 0.89124,-0.40788 1.33396,-0.61835 0.32369,-1.20767 0.45142,-2.47195 0.69528,-3.7014 z"
     id="path5598"
     inkscape:connector-curvature="0"
     style="fill:#ffffff;stroke-width:0.14515279" />
  <path
     d="m 181.55371,119.11232 c 1.66491,-0.32224 3.43432,-0.0668 4.9352,0.72141 2.03068,1.04219 3.54318,3.04095 3.95832,5.28936 0.44416,2.20488 -0.15242,4.59845 -1.60104,6.32141 -1.11042,1.31363 -2.6592,2.28035 -4.35313,2.61275 -1.4704,0.26128 -3.02499,0.16402 -4.40975,-0.41659 -2.26148,-0.89269 -3.99895,-2.96402 -4.52876,-5.33291 -0.51675,-2.16858 -0.006,-4.5549 1.35282,-6.32286 1.11913,-1.49217 2.81742,-2.52711 4.64634,-2.87257 z"
     id="path5600"
     inkscape:connector-curvature="0"
     style="fill:#000000;stroke-width:0.14515279" />
  <path
     d="m 140.4595,120.93108 c 1.48927,-0.3832 2.9916,-0.71415 4.48087,-1.09445 0.64738,1.183 1.26573,2.38341 1.87683,3.58673 1.44717,-0.13354 2.90305,-0.10161 4.34732,0.0435 0.68077,-1.13509 1.33396,-2.28761 2.02924,-3.41254 1.46894,0.44271 2.93499,0.88834 4.41264,1.30057 -0.007,1.30202 -0.13063,2.60114 -0.13934,3.90461 1.36008,0.6198 2.63017,1.41814 3.83348,2.30067 1.09881,-0.64738 2.21213,-1.27299 3.33271,-1.88408 1.06542,1.11477 2.11633,2.24261 3.18465,3.35303 -0.68657,1.06977 -1.38185,2.13229 -2.03649,3.22094 0.76931,1.27734 1.55604,2.55469 2.08149,3.95686 1.28896,0.0189 2.57936,0.0276 3.86832,0.0262 0.37595,1.50668 0.7606,3.01192 1.07268,4.53312 -1.15977,0.59367 -2.31373,1.19751 -3.4648,1.80715 0.0958,1.4704 0.0247,2.9437 -0.1408,4.40539 1.14961,0.63722 2.26875,1.3296 3.40239,1.99585 -0.41949,1.4704 -0.89995,2.92338 -1.27735,4.40539 -1.35282,0.0131 -2.70419,-0.10016 -4.05702,-0.14225 -0.63722,1.29041 -1.41088,2.50679 -2.26874,3.66075 0.67787,1.16122 1.31654,2.34422 1.9915,3.50834 -1.09445,1.08865 -2.25132,2.11343 -3.35013,3.19772 -1.15686,-0.72867 -2.30502,-1.46749 -3.46044,-2.19761 -1.07848,0.71415 -2.20632,1.35718 -3.39802,1.86521 -0.1408,0.0726 -0.37595,0.12483 -0.33386,0.33821 0.001,1.29911 -0.0392,2.60113 -0.0218,3.9017 -1.49653,0.38756 -3.00757,0.72287 -4.50845,1.09445 -0.65174,-1.20476 -1.26718,-2.42985 -1.91166,-3.63752 -1.40798,0.0784 -2.82322,0.0566 -4.2225,-0.12484 -0.68947,1.17719 -1.38911,2.35003 -2.07713,3.52867 -1.48927,-0.39046 -2.95967,-0.85931 -4.43732,-1.29331 0.0203,-1.35282 0.10886,-2.70565 0.1437,-4.05702 l -0.045,-0.11322 c -1.22364,-0.62416 -2.39357,-1.34992 -3.48947,-2.17874 -1.20913,0.67786 -2.41825,1.35863 -3.62011,2.04955 -1.07559,-1.11913 -2.16133,-2.22809 -3.19482,-3.38496 0.76931,-1.16848 1.49653,-2.36454 2.26584,-3.53302 -0.70689,-1.14235 -1.38476,-2.31228 -1.86521,-3.57076 -1.43992,-0.12918 -2.89145,-0.0435 -4.33717,-0.0958 -0.34691,-1.50523 -0.73157,-3.00321 -1.07123,-4.5099 1.28896,-0.65464 2.5663,-1.3325 3.84945,-1.99875 -0.0697,-1.33686 -0.0174,-2.67371 0.11177,-4.00331 -1.25412,-0.73158 -2.51695,-1.45153 -3.75946,-2.20197 0.43546,-1.47766 0.87527,-2.95386 1.31219,-4.43152 1.45443,0.0319 2.9074,0.12628 4.36184,0.17419 0.60383,-1.19316 1.25992,-2.36164 2.07859,-3.42126 -0.704,-1.25847 -1.42831,-2.50678 -2.12359,-3.77107 1.11622,-1.05671 2.22374,-2.12503 3.33996,-3.18174 1.20187,0.74463 2.39648,1.50378 3.58093,2.27454 1.13799,-0.77076 2.33405,-1.46024 3.59398,-2.01037 0.0639,-1.39346 0.0377,-2.78983 0.0595,-4.1833 z"
     id="path5602"
     inkscape:connector-curvature="0"
     style="fill:#ffffff;stroke-width:0.14515279" />
  <path
     d="m 146.42819,130.01039 c 2.78983,-0.44271 5.70595,-0.0334 8.26935,1.15106 2.43276,1.11477 4.52442,2.94515 6.00933,5.16744 1.41233,2.19326 2.26438,4.75811 2.35728,7.37086 0.11757,3.05837 -0.75625,6.15593 -2.49372,8.68014 -1.1293,1.65038 -2.59824,3.07143 -4.29943,4.12379 -2.67952,1.67506 -5.92369,2.43131 -9.06624,2.09891 -2.54453,-0.24821 -5.01794,-1.19316 -7.07475,-2.71 -2.25858,-1.6562 -4.02799,-3.97864 -4.99471,-6.60881 -0.89995,-2.37906 -1.11913,-5.00051 -0.68948,-7.50295 0.54433,-3.14256 2.17294,-6.0848 4.53458,-8.22581 2.05536,-1.88698 4.69278,-3.12369 7.44779,-3.54463 z"
     id="path5604"
     inkscape:connector-curvature="0"
     style="fill:#000000;stroke-width:0.14515279" />
</svg>
