<?xml version="1.0" encoding="UTF-8" standalone="no"?>
<!-- Created with Inkscape (http://www.inkscape.org/) -->

<svg
   xmlns:dc="http://purl.org/dc/elements/1.1/"
   xmlns:cc="http://creativecommons.org/ns#"
   xmlns:rdf="http://www.w3.org/1999/02/22-rdf-syntax-ns#"
   xmlns:svg="http://www.w3.org/2000/svg"
   xmlns="http://www.w3.org/2000/svg"
   xmlns:sodipodi="http://sodipodi.sourceforge.net/DTD/sodipodi-0.dtd"
   xmlns:inkscape="http://www.inkscape.org/namespaces/inkscape"
   id="svg3089"
   version="1.1"
   inkscape:version="0.92.1 r15371"
   width="320"
   height="220"
   sodipodi:docname="Project_kitchen_logo3.svg"
   inkscape:export-filename="C:\data\ProjectKitchen_Github\InfoTerminal\webpages\websites\03_pk_diashow\pk-dias\logo\anim\Project_kitchen_logo3.png"
   inkscape:export-xdpi="96"
   inkscape:export-ydpi="96">
  <metadata
     id="metadata3095">
    <rdf:RDF>
      <cc:Work
         rdf:about="">
        <dc:format>image/svg+xml</dc:format>
        <dc:type
           rdf:resource="http://purl.org/dc/dcmitype/StillImage" />
        <dc:title />
      </cc:Work>
    </rdf:RDF>
  </metadata>
  <defs
     id="defs3093" />
  <sodipodi:namedview
     pagecolor="#ffffff"
     bordercolor="#666666"
     borderopacity="1"
     objecttolerance="10"
     gridtolerance="10"
     guidetolerance="10"
     inkscape:pageopacity="0"
     inkscape:pageshadow="2"
     inkscape:window-width="1600"
     inkscape:window-height="837"
     id="namedview3091"
     showgrid="false"
     showguides="true"
     inkscape:guide-bbox="true"
     inkscape:zoom="4.36"
     inkscape:cx="166.83243"
     inkscape:cy="114.49274"
     inkscape:window-x="-9"
     inkscape:window-y="-9"
     inkscape:window-maximized="1"
     inkscape:current-layer="svg3089">
    <sodipodi:guide
       orientation="0,1"
       position="230.35714,417.85714"
       id="guide5354"
       inkscape:locked="false" />
  </sodipodi:namedview>
  <g
     inkscape:groupmode="layer"
     id="layer1"
     inkscape:label="Ebene"
     style="display:inline"
     transform="translate(0,-343)" />
  <rect
     style="display:inline;fill:#000000;fill-opacity:1;fill-rule:evenodd;stroke:none;stroke-width:0.41896024"
     id="rect3100"
     width="201.10092"
     height="178.05811"
     x="59.787895"
     y="23.853519"
     rx="22.26757"
     ry="22.26757" />
  <rect
     style="display:inline;fill:#ffffff;fill-opacity:1;stroke:none;stroke-width:0.41896024"
     id="rect3870"
     width="171.02892"
     height="148.41353"
     x="74.823891"
     y="38.675804"
     rx="7.422524"
     ry="7.422524" />
  <rect
     style="fill:#000000;fill-opacity:1;stroke:none;stroke-width:0.41896024"
     id="rect5314"
     width="187.44849"
     height="14.717116"
     x="63.925209"
     y="71.204506" />
  <rect
     style="fill:#000000;fill-opacity:1;stroke:none;stroke-width:0.49877688"
     id="rect5318"
     width="156.04622"
     height="88.411285"
     x="82.754845"
     y="92.493736"
     rx="8.2790108"
     ry="9.4317389" />
  <rect
     style="fill:#000000;fill-opacity:1;stroke:none;stroke-width:0.41896024"
     id="rect5374"
     width="61.957401"
     height="18.715902"
     x="90.968437"
     y="16.237707"
     rx="7.422524"
     ry="7.422524" />
  <rect
     style="fill:#000000;fill-opacity:1;stroke:none;stroke-width:0.41896024"
     id="rect5374-9"
     width="46.07439"
     height="18.715902"
     x="184.25694"
     y="16.237707"
     rx="7.422524"
     ry="7.422524" />
  <rect
     style="fill:#000000;fill-opacity:1;stroke:none;stroke-width:0.41896024"
     id="rect5394"
     width="24.65423"
     height="18.253613"
     x="82.245026"
     y="191.93382"
     rx="7.422524"
     ry="7.422524" />
  <rect
     style="fill:#000000;fill-opacity:1;stroke:none;stroke-width:0.41896024"
     id="rect5394-4"
     width="24.65423"
     height="18.253613"
     x="215.23566"
     y="191.93382"
     rx="7.422524"
     ry="7.422524" />
  <a
     id="a5436"
     transform="matrix(0.41896024,0,0,0.41896024,32.225383,-5.6556123)">
    <ellipse
       ry="19.345238"
       rx="27.380953"
       cy="146.63095"
       cx="156.54762"
       transform="matrix(0.70869563,0,0,1.003077,47.745866,-1.9392744)"
       id="path5320"
       style="fill:#000000;fill-opacity:1;stroke:none" />
  </a>
  <ellipse
     ry="7.184804"
     rx="7.1848035"
     cy="55.153477"
     cx="98.710388"
     style="fill:#ffffff;fill-opacity:1;stroke:none;stroke-width:0.31217894"
     id="path5320-8" />
  <a
     id="a5436-2"
     transform="matrix(0.41896024,0,0,0.41896024,55.638985,-5.6556123)">
    <ellipse
       transform="matrix(0.70869563,0,0,1.003077,47.745866,-1.9392744)"
       id="path5320-4"
       style="fill:#000000;fill-opacity:1;stroke:none"
       cx="156.54762"
       cy="146.63095"
       rx="27.380953"
       ry="19.345238" />
  </a>
  <ellipse
     style="fill:#009bff;fill-opacity:1;stroke:none;stroke-width:0.31217894"
     id="path5320-8-5"
     cx="122.12399"
     cy="55.153473"
     rx="7.1848035"
     ry="7.1848044" />
  <a
     id="a5436-1"
     transform="matrix(0.41896024,0,0,0.41896024,79.052594,-5.6556123)">
    <ellipse
       transform="matrix(0.70869563,0,0,1.003077,47.745866,-1.9392744)"
       id="path5320-7"
       style="fill:#000000;fill-opacity:1;stroke:none"
       cx="156.54762"
       cy="146.63095"
       rx="27.380953"
       ry="19.345238" />
  </a>
  <ellipse
     style="fill:#ffffff;fill-opacity:1;stroke:none;stroke-width:0.31217894"
     id="path5320-8-1"
     cx="145.5376"
     cy="55.153473"
     rx="7.1848035"
     ry="7.1848044" />
  <a
     id="a5436-5"
     transform="matrix(0.41896024,0,0,0.41896024,102.46619,-5.6556123)">
    <ellipse
       transform="matrix(0.70869563,0,0,1.003077,47.745866,-1.9392744)"
       id="path5320-2"
       style="fill:#000000;fill-opacity:1;stroke:none"
       cx="156.54762"
       cy="146.63095"
       rx="27.380953"
       ry="19.345238" />
  </a>
  <ellipse
     style="fill:#ffffff;fill-opacity:1;stroke:none;stroke-width:0.31217894"
     id="path5320-8-7"
     cx="168.95119"
     cy="55.153473"
     rx="7.1848035"
     ry="7.1848044" />
  <a
     id="a5436-14"
     transform="matrix(0.41896024,0,0,0.41896024,156.24665,-5.6556123)">
    <ellipse
       transform="matrix(0.70869563,0,0,1.003077,47.745866,-1.9392744)"
       id="path5320-23"
       style="fill:#000000;fill-opacity:1;stroke:none"
       cx="156.54762"
       cy="146.63095"
       rx="27.380953"
       ry="19.345238" />
  </a>
  <ellipse
     style="fill:#ff9b00;fill-opacity:1;stroke:none;stroke-width:0.31217894"
     id="path5320-8-2"
     cx="222.73164"
     cy="55.153473"
     rx="7.1848035"
     ry="7.1848044" />
  <path
     d="m 167.87766,106.09813 c 0.46935,0.36672 0.91257,0.76842 1.29458,1.22846 -0.27224,0.60546 -0.53019,1.21749 -0.80119,1.8222 0.42777,0.6912 0.59194,1.49431 0.85868,2.2425 0.59939,0.33404 1.22542,0.61746 1.80897,0.97838 -0.011,0.5394 -0.0606,1.07708 -0.1551,1.60841 -0.68481,0.23948 -1.43233,0.31973 -2.08636,0.6255 -0.29735,0.71662 -0.76657,1.33479 -1.21308,1.95935 0.0969,0.70819 0.26709,1.40516 0.39477,2.10796 -0.42144,0.34785 -0.87854,0.65462 -1.38381,0.86703 -0.59767,-0.44436 -1.18989,-0.89381 -1.80412,-1.31255 -0.71385,0.19256 -1.45577,0.26253 -2.19339,0.22912 -0.50644,0.53875 -0.96322,1.12189 -1.46735,1.66435 -0.53673,-0.16116 -1.06658,-0.34704 -1.56458,-0.60557 -0.0115,-0.73029 -0.0602,-1.45981 -0.0822,-2.19046 -0.58577,-0.41416 -1.01745,-0.99027 -1.51729,-1.49176 -0.67979,-0.0641 -1.3654,-0.0631 -2.04849,-0.0773 -0.26574,-0.5508 -0.45059,-1.13628 -0.58476,-1.73093 0.52575,-0.45512 1.03911,-0.92476 1.57878,-1.3629 -0.012,-0.69243 0.0861,-1.37793 0.23091,-2.05137 -0.39214,-0.50668 -0.7833,-1.01739 -1.14238,-1.54796 0.13394,-0.61379 0.60769,-1.13914 0.98215,-1.64568 0.641,0.10344 1.27948,0.22212 1.91618,0.35724 0.52651,-0.45388 1.10692,-0.84552 1.74771,-1.11753 0.1825,-0.63188 0.33949,-1.27187 0.51599,-1.90516 0.61534,-0.11453 1.26796,-0.30676 1.88797,-0.19032 0.32141,0.53852 0.59631,1.10411 0.89912,1.65413 0.73692,0.12603 1.44871,0.36319 2.12089,0.68804 0.59713,-0.27912 1.20968,-0.52506 1.80759,-0.80291 z"
     id="path5594"
     inkscape:connector-curvature="0"
     style="fill:#ffffff;stroke-width:0.14515279" />
  <path
     d="m 162.12065,108.54084 c 1.30057,-0.29756 2.7463,0.10451 3.67673,1.06832 1.17573,1.16123 1.46749,3.08886 0.67641,4.54184 -0.73302,1.51539 -2.53872,2.36018 -4.1775,2.0481 -1.80715,-0.30192 -3.2311,-2.02488 -3.19771,-3.85526 -0.0348,-1.77086 1.30492,-3.41834 3.02207,-3.803 z"
     id="path5596"
     inkscape:connector-curvature="0"
     style="fill:#000000;stroke-width:0.14515279" />
  <path
     d="m 174.99085,114.9569 c 0.83671,-0.57549 1.73866,-1.06128 2.68985,-1.42295 0.84081,0.89543 1.72243,1.75594 2.56944,2.64733 0.51979,-0.10264 1.03939,-0.20627 1.56495,-0.27092 0.50785,-1.12898 1.0402,-2.24739 1.52867,-3.38589 1.01345,0.0118 2.01919,0.17351 3.00397,0.4044 0.18447,1.16199 0.32533,2.33194 0.52763,3.49157 0.0208,0.24159 0.31514,0.26694 0.48464,0.37148 0.36188,0.13285 0.68267,0.40224 1.07067,0.45135 1.05641,-0.58456 2.08977,-1.21149 3.15826,-1.7774 0.7696,0.63323 1.5386,1.28856 2.14411,2.08681 -0.56432,1.08111 -1.14478,2.15304 -1.68217,3.2469 0.28186,0.47846 0.55678,0.96281 0.79008,1.46832 1.21522,0.14261 2.43127,0.28333 3.64898,0.40464 0.32369,0.94596 0.47633,1.94102 0.55347,2.93478 -1.07331,0.55377 -2.16565,1.07137 -3.24056,1.62108 -0.16252,0.5548 -0.12626,1.1541 -0.2764,1.71646 0.86618,0.88068 1.81295,1.67318 2.72242,2.50548 -0.32643,0.93679 -0.76891,1.82905 -1.27676,2.67853 -1.22854,-0.1998 -2.44941,-0.44322 -3.68069,-0.6263 -0.36272,0.43588 -0.76119,0.84066 -1.18466,1.21788 0.22658,1.23275 0.51019,2.45539 0.75596,3.68522 -0.79785,0.56319 -1.68022,0.98813 -2.57299,1.37503 -0.91341,-0.86195 -1.77465,-1.77738 -2.65887,-2.66808 -0.55366,0.1041 -1.10972,0.19034 -1.66524,0.2779 -0.51355,1.14218 -1.04165,2.2792 -1.54577,3.42546 -0.98515,-0.007 -1.96282,-0.18493 -2.91986,-0.40495 -0.21227,-1.2556 -0.36036,-2.52261 -0.57722,-3.77796 -0.48595,-0.19764 -0.93882,-0.46149 -1.41422,-0.67579 -1.13276,0.51804 -2.18229,1.23412 -3.28613,1.81718 -0.83789,-0.5062 -1.50459,-1.30517 -2.17259,-2.02868 0.56369,-1.14177 1.17663,-2.25779 1.75969,-3.39006 -0.25476,-0.46111 -0.49462,-0.92813 -0.72155,-1.40182 -1.2537,-0.16482 -2.51293,-0.28842 -3.77022,-0.42683 -0.29046,-0.96069 -0.46768,-1.95849 -0.51409,-2.96133 1.14392,-0.54895 2.27845,-1.11767 3.41084,-1.69175 0.0462,-0.51335 0.12668,-1.0231 0.20712,-1.53283 -0.93478,-0.83318 -1.84875,-1.68865 -2.78489,-2.52129 0.32431,-0.95 0.79347,-1.84192 1.3081,-2.70189 1.25449,0.17075 2.49551,0.43742 3.75244,0.60251 0.31403,-0.37753 0.67807,-0.70774 1.012,-1.06662 -0.14443,-1.24192 -0.49183,-2.46423 -0.71861,-3.69694 z"
     id="path5598"
     inkscape:connector-curvature="0"
     style="fill:#ffffff;stroke-width:0.14515279" />
  <path
     d="m 181.55371,119.11232 c 1.66491,-0.32224 3.43432,-0.0668 4.9352,0.72141 2.03068,1.04219 3.54318,3.04095 3.95832,5.28936 0.44416,2.20488 -0.15242,4.59845 -1.60104,6.32141 -1.11042,1.31363 -2.6592,2.28035 -4.35313,2.61275 -1.4704,0.26128 -3.02499,0.16402 -4.40975,-0.41659 -2.26148,-0.89269 -3.99895,-2.96402 -4.52876,-5.33291 -0.51675,-2.16858 -0.006,-4.5549 1.35282,-6.32286 1.11913,-1.49217 2.81742,-2.52711 4.64634,-2.87257 z"
     id="path5600"
     inkscape:connector-curvature="0"
     style="fill:#000000;stroke-width:0.14515279" />
  <path
     d="m 147.22126,119.63502 c 1.53715,0.0442 3.07237,0.14227 4.60872,0.18929 0.29443,1.31601 0.55615,2.64071 0.81011,3.96621 1.42755,0.27242 2.81764,0.70633 4.16523,1.24575 0.9685,-0.90216 1.91532,-1.82871 2.89494,-2.71709 1.28888,0.8322 2.57418,1.66641 3.87987,2.47174 -0.3673,1.24915 -0.84588,2.46322 -1.21523,3.7133 1.13523,0.97221 2.13456,2.09107 3.0464,3.27232 1.23511,-0.31775 2.47815,-0.61057 3.72412,-0.88742 0.71503,1.36623 1.4125,2.74099 2.13151,4.10384 -0.95598,0.83778 -1.91832,1.6662 -2.84884,2.53097 0.38547,1.44044 0.78768,2.8857 0.90426,4.37854 1.23331,0.37513 2.47083,0.74086 3.70976,1.09647 -0.056,1.55187 -0.10327,3.10476 -0.22467,4.65289 -1.27882,0.24927 -2.55487,0.50991 -3.82976,0.77693 -0.31516,1.43941 -0.79149,2.8354 -1.35532,4.19408 0.92817,0.93068 1.81179,1.90591 2.71659,2.86005 -0.81031,1.29672 -1.67436,2.55981 -2.44742,3.87934 -1.30354,-0.36206 -2.57068,-0.84515 -3.85895,-1.26025 -0.96966,1.06347 -2.04992,2.01802 -3.19381,2.88927 0.32977,1.30353 0.61584,2.61714 0.94201,3.92265 -1.35313,0.74297 -2.74856,1.40729 -4.10467,2.14486 -0.90982,-1.02055 -1.80846,-2.04845 -2.7165,-3.06999 -1.23406,0.38755 -2.49588,0.69308 -3.78166,0.85121 -0.15539,0.0307 -0.39582,0.0159 -0.41447,0.23252 -0.35881,1.24857 -0.75802,2.48853 -1.10148,3.74305 -1.54533,-0.042 -3.09013,-0.13831 -4.6352,-0.19692 -0.29261,-1.33813 -0.5447,-2.68575 -0.82952,-4.02467 -1.37462,-0.31458 -2.72848,-0.72746 -4.02277,-1.28933 -0.98852,0.94021 -1.9856,1.87342 -2.97312,2.81542 -1.32289,-0.78763 -2.60593,-1.64536 -3.90559,-2.4716 0.39415,-1.29429 0.8539,-2.56968 1.26162,-3.85855 l -0.0119,-0.12125 c -1.00293,-0.93863 -1.9261,-1.95999 -2.74961,-3.05989 -1.34956,0.31648 -2.69992,0.63577 -4.04612,0.96683 -0.72359,-1.37324 -1.45974,-2.73951 -2.13243,-4.13734 1.06282,-0.90972 2.09283,-1.85761 3.15566,-2.76734 -0.36288,-1.29343 -0.69025,-2.60533 -0.80338,-3.94764 -1.34783,-0.5229 -2.76631,-0.84256 -4.141,-1.29319 0.0835,-1.54244 0.12875,-3.08835 0.21965,-4.63018 1.41983,-0.27207 2.83494,-0.56967 4.25241,-0.8545 0.30326,-1.30387 0.72374,-2.57395 1.21607,-3.81578 -1.00246,-1.05028 -2.01651,-2.0918 -3.00259,-3.15699 0.82765,-1.29927 1.65907,-2.59593 2.48812,-3.89479 1.38872,0.43345 2.75871,0.92652 4.14301,1.37534 0.91064,-0.97927 1.86467,-1.92035 2.94476,-2.7118 -0.32794,-1.40421 -0.67821,-2.80429 -0.99616,-4.21168 1.3652,-0.70625 2.72526,-1.42606 4.09047,-2.13232 0.94864,1.04835 1.88629,2.10864 2.81096,3.17728 1.30694,-0.42546 2.64715,-0.75673 4.01017,-0.93643 0.4473,-1.32125 0.80883,-2.67027 1.21569,-4.0032 z"
     id="path5602"
     inkscape:connector-curvature="0"
     style="fill:#ffffff;stroke-width:0.14515279" />
  <path
     d="m 146.42819,130.01039 c 2.78983,-0.44271 5.70595,-0.0334 8.26935,1.15106 2.43276,1.11477 4.52442,2.94515 6.00933,5.16744 1.41233,2.19326 2.26438,4.75811 2.35728,7.37086 0.11757,3.05837 -0.75625,6.15593 -2.49372,8.68014 -1.1293,1.65038 -2.59824,3.07143 -4.29943,4.12379 -2.67952,1.67506 -5.92369,2.43131 -9.06624,2.09891 -2.54453,-0.24821 -5.01794,-1.19316 -7.07475,-2.71 -2.25858,-1.6562 -4.02799,-3.97864 -4.99471,-6.60881 -0.89995,-2.37906 -1.11913,-5.00051 -0.68948,-7.50295 0.54433,-3.14256 2.17294,-6.0848 4.53458,-8.22581 2.05536,-1.88698 4.69278,-3.12369 7.44779,-3.54463 z"
     id="path5604"
     inkscape:connector-curvature="0"
     style="fill:#000000;stroke-width:0.14515279" />
</svg>
