<?xml version="1.0" encoding="UTF-8" standalone="no"?>
<!-- Created with Inkscape (http://www.inkscape.org/) -->

<svg
   xmlns:dc="http://purl.org/dc/elements/1.1/"
   xmlns:cc="http://creativecommons.org/ns#"
   xmlns:rdf="http://www.w3.org/1999/02/22-rdf-syntax-ns#"
   xmlns:svg="http://www.w3.org/2000/svg"
   xmlns="http://www.w3.org/2000/svg"
   xmlns:sodipodi="http://sodipodi.sourceforge.net/DTD/sodipodi-0.dtd"
   xmlns:inkscape="http://www.inkscape.org/namespaces/inkscape"
   id="svg3089"
   version="1.1"
   inkscape:version="0.92.1 r15371"
   width="320"
   height="220"
   sodipodi:docname="Project_kitchen_logo2.svg"
   inkscape:export-filename="C:\data\ProjectKitchen_Github\InfoTerminal\webpages\websites\03_pk_diashow\pk-dias\logo\anim\Project_kitchen_logo2.png"
   inkscape:export-xdpi="96"
   inkscape:export-ydpi="96">
  <metadata
     id="metadata3095">
    <rdf:RDF>
      <cc:Work
         rdf:about="">
        <dc:format>image/svg+xml</dc:format>
        <dc:type
           rdf:resource="http://purl.org/dc/dcmitype/StillImage" />
        <dc:title />
      </cc:Work>
    </rdf:RDF>
  </metadata>
  <defs
     id="defs3093" />
  <sodipodi:namedview
     pagecolor="#ffffff"
     bordercolor="#666666"
     borderopacity="1"
     objecttolerance="10"
     gridtolerance="10"
     guidetolerance="10"
     inkscape:pageopacity="0"
     inkscape:pageshadow="2"
     inkscape:window-width="1600"
     inkscape:window-height="837"
     id="namedview3091"
     showgrid="false"
     showguides="true"
     inkscape:guide-bbox="true"
     inkscape:zoom="6.1659711"
     inkscape:cx="145.78674"
     inkscape:cy="148.71968"
     inkscape:window-x="-9"
     inkscape:window-y="-9"
     inkscape:window-maximized="1"
     inkscape:current-layer="svg3089">
    <sodipodi:guide
       orientation="0,1"
       position="230.35714,417.85714"
       id="guide5354"
       inkscape:locked="false" />
  </sodipodi:namedview>
  <g
     inkscape:groupmode="layer"
     id="layer1"
     inkscape:label="Ebene"
     style="display:inline"
     transform="translate(0,-343)" />
  <rect
     style="display:inline;fill:#000000;fill-opacity:1;fill-rule:evenodd;stroke:none;stroke-width:0.41896024"
     id="rect3100"
     width="201.10092"
     height="178.05811"
     x="59.787895"
     y="23.853519"
     rx="22.26757"
     ry="22.26757" />
  <rect
     style="display:inline;fill:#ffffff;fill-opacity:1;stroke:none;stroke-width:0.41896024"
     id="rect3870"
     width="171.02892"
     height="148.41353"
     x="74.823891"
     y="38.675804"
     rx="7.422524"
     ry="7.422524" />
  <rect
     style="fill:#000000;fill-opacity:1;stroke:none;stroke-width:0.41896024"
     id="rect5314"
     width="187.44849"
     height="14.717116"
     x="63.925209"
     y="71.204506" />
  <rect
     style="fill:#000000;fill-opacity:1;stroke:none;stroke-width:0.49877688"
     id="rect5318"
     width="156.04622"
     height="88.411285"
     x="82.754845"
     y="92.493736"
     rx="8.2790108"
     ry="9.4317389" />
  <rect
     style="fill:#000000;fill-opacity:1;stroke:none;stroke-width:0.41896024"
     id="rect5374"
     width="61.957401"
     height="18.715902"
     x="90.968437"
     y="16.237707"
     rx="7.422524"
     ry="7.422524" />
  <rect
     style="fill:#000000;fill-opacity:1;stroke:none;stroke-width:0.41896024"
     id="rect5374-9"
     width="46.07439"
     height="18.715902"
     x="184.25694"
     y="16.237707"
     rx="7.422524"
     ry="7.422524" />
  <rect
     style="fill:#000000;fill-opacity:1;stroke:none;stroke-width:0.41896024"
     id="rect5394"
     width="24.65423"
     height="18.253613"
     x="82.245026"
     y="191.93382"
     rx="7.422524"
     ry="7.422524" />
  <rect
     style="fill:#000000;fill-opacity:1;stroke:none;stroke-width:0.41896024"
     id="rect5394-4"
     width="24.65423"
     height="18.253613"
     x="215.23566"
     y="191.93382"
     rx="7.422524"
     ry="7.422524" />
  <a
     id="a5436"
     transform="matrix(0.41896024,0,0,0.41896024,32.225383,-5.6556123)">
    <ellipse
       ry="19.345238"
       rx="27.380953"
       cy="146.63095"
       cx="156.54762"
       transform="matrix(0.70869563,0,0,1.003077,47.745866,-1.9392744)"
       id="path5320"
       style="fill:#000000;fill-opacity:1;stroke:none" />
  </a>
  <ellipse
     ry="7.184804"
     rx="7.1848035"
     cy="55.153477"
     cx="98.710388"
     style="fill:#ffffff;fill-opacity:1;stroke:none;stroke-width:0.31217894"
     id="path5320-8" />
  <a
     id="a5436-2"
     transform="matrix(0.41896024,0,0,0.41896024,55.638985,-5.6556123)">
    <ellipse
       transform="matrix(0.70869563,0,0,1.003077,47.745866,-1.9392744)"
       id="path5320-4"
       style="fill:#000000;fill-opacity:1;stroke:none"
       cx="156.54762"
       cy="146.63095"
       rx="27.380953"
       ry="19.345238" />
  </a>
  <ellipse
     style="fill:#ff0000;fill-opacity:1;stroke:none;stroke-width:0.31217894"
     id="path5320-8-5"
     cx="122.12399"
     cy="55.153473"
     rx="7.1848035"
     ry="7.1848044" />
  <a
     id="a5436-1"
     transform="matrix(0.41896024,0,0,0.41896024,79.052594,-5.6556123)">
    <ellipse
       transform="matrix(0.70869563,0,0,1.003077,47.745866,-1.9392744)"
       id="path5320-7"
       style="fill:#000000;fill-opacity:1;stroke:none"
       cx="156.54762"
       cy="146.63095"
       rx="27.380953"
       ry="19.345238" />
  </a>
  <ellipse
     style="fill:#ffffff;fill-opacity:1;stroke:none;stroke-width:0.31217894"
     id="path5320-8-1"
     cx="145.5376"
     cy="55.153473"
     rx="7.1848035"
     ry="7.1848044" />
  <a
     id="a5436-5"
     transform="matrix(0.41896024,0,0,0.41896024,102.46619,-5.6556123)">
    <ellipse
       transform="matrix(0.70869563,0,0,1.003077,47.745866,-1.9392744)"
       id="path5320-2"
       style="fill:#000000;fill-opacity:1;stroke:none"
       cx="156.54762"
       cy="146.63095"
       rx="27.380953"
       ry="19.345238" />
  </a>
  <ellipse
     style="fill:#ffffff;fill-opacity:1;stroke:none;stroke-width:0.31217894"
     id="path5320-8-7"
     cx="168.95119"
     cy="55.153473"
     rx="7.1848035"
     ry="7.1848044" />
  <a
     id="a5436-14"
     transform="matrix(0.41896024,0,0,0.41896024,156.24665,-5.6556123)">
    <ellipse
       transform="matrix(0.70869563,0,0,1.003077,47.745866,-1.9392744)"
       id="path5320-23"
       style="fill:#000000;fill-opacity:1;stroke:none"
       cx="156.54762"
       cy="146.63095"
       rx="27.380953"
       ry="19.345238" />
  </a>
  <ellipse
     style="fill:#ffffff;fill-opacity:1;stroke:none;stroke-width:0.31217894"
     id="path5320-8-2"
     cx="222.73164"
     cy="55.153473"
     rx="7.1848035"
     ry="7.1848044" />
  <path
     d="m 163.75046,104.40279 c 0.59305,0.0554 1.18297,0.15435 1.75286,0.33545 0.0976,0.65664 0.21078,1.31109 0.30902,1.96642 0.73317,0.351 1.30484,0.93849 1.93321,1.42438 0.68487,-0.0423 1.36486,-0.14159 2.05092,-0.15271 0.28188,0.46002 0.53032,0.93943 0.73753,1.43774 -0.44725,0.57121 -1.03323,1.04223 -1.41879,1.65263 0.13646,0.76377 0.0751,1.53742 0.0363,2.30419 0.4638,0.54388 0.98325,1.03877 1.47005,1.5615 -0.16704,0.5203 -0.38627,1.02526 -0.69699,1.47678 -0.74297,-0.0515 -1.48411,-0.11023 -2.2272,-0.13123 -0.49701,0.54739 -1.08383,1.00673 -1.72282,1.37672 -0.13556,0.72688 -0.20536,1.46432 -0.33698,2.19308 -0.53882,0.15402 -1.0852,0.28351 -1.64397,0.33465 -0.40388,-0.60855 -0.83857,-1.19644 -1.25146,-1.79964 -0.71666,-0.0325 -1.39101,-0.28451 -2.08246,-0.4369 -0.60686,0.31295 -1.18351,0.68382 -1.76624,1.04053 -0.52099,-0.32026 -0.9926,-0.71337 -1.4265,-1.14156 0.19696,-0.6669 0.37565,-1.33933 0.59349,-1.99945 -0.38384,-0.57643 -0.67123,-1.20646 -0.91279,-1.85155 -0.60359,-0.2149 -1.20853,-0.43372 -1.79718,-0.68657 -0.21852,-0.589 -0.10324,-1.28696 -0.0614,-1.91549 0.59545,-0.25888 1.197,-0.50358 1.80593,-0.73347 0.19827,-0.66627 0.4755,-1.30923 0.86814,-1.88407 -0.18741,-0.63044 -0.40067,-1.25394 -0.59389,-1.88233 0.4562,-0.42854 0.90185,-0.9426 1.48665,-1.17921 0.56123,0.27987 1.09791,0.60764 1.64969,0.90723 0.68839,-0.29163 1.41561,-0.47616 2.15681,-0.56548 0.35204,-0.55726 0.73497,-1.09491 1.08835,-1.65152 z"
     id="path5594"
     inkscape:connector-curvature="0"
     style="fill:#ffffff;stroke-width:0.14515279" />
  <path
     d="m 162.12065,108.54084 c 1.30057,-0.29756 2.7463,0.10451 3.67673,1.06832 1.17573,1.16123 1.46749,3.08886 0.67641,4.54184 -0.73302,1.51539 -2.53872,2.36018 -4.1775,2.0481 -1.80715,-0.30192 -3.2311,-2.02488 -3.19771,-3.85526 -0.0348,-1.77086 1.30492,-3.41834 3.02207,-3.803 z"
     id="path5596"
     inkscape:connector-curvature="0"
     style="fill:#000000;stroke-width:0.14515279" />
  <path
     d="m 177.36096,113.66195 c 0.93082,-0.406 1.90865,-0.71155 2.91123,-0.88588 0.65534,1.03889 1.35737,2.05125 2.01956,3.08736 0.52983,-0.002 1.05965,-0.005 1.58792,0.0314 0.71313,-1.01191 1.44831,-2.00878 2.14422,-3.03371 0.99274,0.2042 1.94943,0.55404 2.87239,0.96786 -0.0397,1.17587 -0.12373,2.35127 -0.14547,3.52821 -0.0255,0.24114 0.25867,0.32197 0.40522,0.45681 0.33004,0.1992 0.59379,0.52464 0.96539,0.64658 1.14824,-0.37316 2.28191,-0.7923 3.43846,-1.14486 0.63525,0.76793 1.26571,1.55745 1.7085,2.45622 -0.75948,0.95418 -1.53306,1.89627 -2.26852,2.86808 0.18581,0.52331 0.36368,1.05107 0.49667,1.59171 1.16598,0.37093 2.33313,0.74017 3.5056,1.09066 0.13803,0.99024 0.0988,1.99617 -0.0143,2.98648 -1.15899,0.33973 -2.32978,0.64032 -3.48956,0.97576 -0.26499,0.5138 -0.34327,1.10907 -0.59754,1.63266 0.68305,1.02923 1.46197,1.9872 2.19671,2.97715 -0.4985,0.85769 -1.10247,1.64961 -1.76249,2.38711 -1.16819,-0.42961 -2.32055,-0.90059 -3.49461,-1.31431 -0.43894,0.35901 -0.90707,0.68069 -1.3945,0.97057 -0.0118,1.25334 0.0343,2.5076 0.0419,3.76172 -0.89034,0.40132 -1.83738,0.65084 -2.7874,0.86104 -0.73298,-1.01981 -1.40457,-2.08222 -2.10342,-3.12472 -0.56336,-0.003 -1.12567,-0.024 -1.68771,-0.0436 -0.72123,1.02378 -1.45577,2.03973 -2.16853,3.06931 -0.96579,-0.1945 -1.89191,-0.55455 -2.78971,-0.95242 0.0302,-1.27306 0.12557,-2.54513 0.15121,-3.81881 -0.43954,-0.28638 -0.83402,-0.63148 -1.26003,-0.93222 -1.21056,0.29335 -2.37704,0.79694 -3.57157,1.15962 -0.72643,-0.6562 -1.22915,-1.5673 -1.7475,-2.40456 0.77039,-1.01385 1.58423,-1.99306 2.37183,-2.99391 -0.1625,-0.50111 -0.30924,-1.0052 -0.44202,-1.51339 -1.19954,-0.40005 -2.41234,-0.76068 -3.62041,-1.13549 -0.10262,-0.99838 -0.087,-2.01168 0.058,-3.00506 1.22739,-0.32157 2.44932,-0.66434 3.67017,-1.01278 0.14294,-0.49521 0.31879,-0.98038 0.49463,-1.46554 -0.75943,-0.99563 -1.49418,-2.00919 -2.25504,-3.00455 0.49892,-0.87106 1.12902,-1.65758 1.79769,-2.40409 1.19919,0.40603 2.36692,0.90366 3.56958,1.3046 0.38005,-0.31098 0.8002,-0.566 1.19624,-0.85488 0.0942,-1.24674 -0.0146,-2.51279 -0.003,-3.76614 z"
     id="path5598"
     inkscape:connector-curvature="0"
     style="fill:#ffffff;stroke-width:0.14515279" />
  <path
     d="m 181.55371,119.11232 c 1.66491,-0.32224 3.43432,-0.0668 4.9352,0.72141 2.03068,1.04219 3.54318,3.04095 3.95832,5.28936 0.44416,2.20488 -0.15242,4.59845 -1.60104,6.32141 -1.11042,1.31363 -2.6592,2.28035 -4.35313,2.61275 -1.4704,0.26128 -3.02499,0.16402 -4.40975,-0.41659 -2.26148,-0.89269 -3.99895,-2.96402 -4.52876,-5.33291 -0.51675,-2.16858 -0.006,-4.5549 1.35282,-6.32286 1.11913,-1.49217 2.81742,-2.52711 4.64634,-2.87257 z"
     id="path5600"
     inkscape:connector-curvature="0"
     style="fill:#000000;stroke-width:0.14515279" />
  <path
     d="m 143.64324,120.075 c 1.52712,-0.18076 3.0602,-0.30799 4.58694,-0.48587 0.48349,1.2589 0.93588,2.53117 1.38071,3.80536 1.45203,0.061 2.89059,0.28723 4.30251,0.62404 0.82635,-1.03394 1.62769,-2.08884 2.46706,-3.11077 1.3966,0.63503 2.78996,1.27257 4.19927,1.87856 -0.18092,1.2894 -0.47705,2.56035 -0.65986,3.85097 1.26506,0.79598 2.41708,1.75688 3.49167,2.79229 1.17546,-0.49474 2.3624,-0.96597 3.55458,-1.42183 0.9069,1.24714 1.79768,2.50529 2.70803,3.74851 -0.82336,0.96843 -1.65439,1.92852 -2.44863,2.91992 0.59172,1.36869 1.20071,2.73971 1.53407,4.19952 1.27488,0.19097 2.55254,0.37203 3.83013,0.54288 0.17124,1.54341 0.3513,3.08655 0.45731,4.63581 -1.2287,0.43337 -2.453,0.87759 -3.67522,1.32795 -0.10154,1.47001 -0.36888,2.9206 -0.72822,4.34706 1.05415,0.78513 2.07073,1.62085 3.10518,2.43261 -0.61222,1.40116 -1.28253,2.7769 -1.85458,4.19519 -1.34244,-0.16779 -2.66655,-0.46062 -4.00163,-0.68311 -0.80394,1.19369 -1.7332,2.29578 -2.73757,3.32475 0.51662,1.24139 0.99148,2.49913 1.50483,3.743 -1.23011,0.93264 -2.51355,1.79364 -3.74739,2.72137 -1.04912,-0.87672 -2.08825,-1.76235 -3.13575,-2.64031 -1.16423,0.56363 -2.36789,1.05018 -3.61679,1.39441 -0.14923,0.0531 -0.38926,0.0735 -0.37606,0.29056 -0.1726,1.28759 -0.38643,2.57256 -0.54298,3.86379 -1.5349,0.18411 -3.07719,0.3145 -4.61426,0.48218 -0.48491,-1.28104 -0.93112,-2.57739 -1.40844,-3.86035 -1.40583,-0.11044 -2.80547,-0.32116 -4.16795,-0.68796 -0.84059,1.0745 -1.69068,2.14333 -2.53003,3.21946 -1.42374,-0.58597 -2.8183,-1.2471 -4.2247,-1.87466 0.20089,-1.33798 0.46943,-2.66684 0.68454,-4.00144 l -0.0295,-0.11821 c -1.12926,-0.78208 -2.19171,-1.65766 -3.16703,-2.62549 -1.28887,0.5102 -2.57811,1.02329 -3.86152,1.54742 -0.9164,-1.25283 -1.84421,-2.49693 -2.71384,-3.78152 0.91855,-1.0552 1.79907,-2.14336 2.71763,-3.19856 -0.5479,-1.22656 -1.06336,-2.47658 -1.37133,-3.78798 -1.40975,-0.32043 -2.85971,-0.42949 -4.28547,-0.67451 -0.14266,-1.53809 -0.3237,-3.07403 -0.45897,-4.6126 1.36487,-0.47653 2.72134,-0.97762 4.08201,-1.46643 0.10957,-1.33418 0.34004,-2.65205 0.64572,-3.95247 -1.14511,-0.8926 -2.30041,-1.77485 -3.43149,-2.68459 0.62901,-1.40622 1.26213,-2.81041 1.89259,-4.21643 1.43713,0.22597 2.86445,0.51366 4.29945,0.75549 0.75785,-1.10177 1.5642,-2.1721 2.51712,-3.11282 -0.52952,-1.34125 -1.08052,-2.67516 -1.60062,-4.02102 1.24741,-0.89807 2.48776,-1.80881 3.73517,-2.70689 1.09159,0.89856 2.17404,1.81053 3.24488,2.73266 1.23078,-0.61178 2.50824,-1.13525 3.83039,-1.51209 0.24953,-1.37242 0.41016,-2.75977 0.61797,-4.13783 z"
     id="path5602"
     inkscape:connector-curvature="0"
     style="fill:#ffffff;stroke-width:0.14515279" />
  <path
     d="m 146.42819,130.01039 c 2.78983,-0.44271 5.70595,-0.0334 8.26935,1.15106 2.43276,1.11477 4.52442,2.94515 6.00933,5.16744 1.41233,2.19326 2.26438,4.75811 2.35728,7.37086 0.11757,3.05837 -0.75625,6.15593 -2.49372,8.68014 -1.1293,1.65038 -2.59824,3.07143 -4.29943,4.12379 -2.67952,1.67506 -5.92369,2.43131 -9.06624,2.09891 -2.54453,-0.24821 -5.01794,-1.19316 -7.07475,-2.71 -2.25858,-1.6562 -4.02799,-3.97864 -4.99471,-6.60881 -0.89995,-2.37906 -1.11913,-5.00051 -0.68948,-7.50295 0.54433,-3.14256 2.17294,-6.0848 4.53458,-8.22581 2.05536,-1.88698 4.69278,-3.12369 7.44779,-3.54463 z"
     id="path5604"
     inkscape:connector-curvature="0"
     style="fill:#000000;stroke-width:0.14515279" />
</svg>
