<?xml version="1.0" encoding="UTF-8" standalone="no"?>
<!-- Created with Inkscape (http://www.inkscape.org/) -->

<svg
   xmlns:dc="http://purl.org/dc/elements/1.1/"
   xmlns:cc="http://creativecommons.org/ns#"
   xmlns:rdf="http://www.w3.org/1999/02/22-rdf-syntax-ns#"
   xmlns:svg="http://www.w3.org/2000/svg"
   xmlns="http://www.w3.org/2000/svg"
   xmlns:sodipodi="http://sodipodi.sourceforge.net/DTD/sodipodi-0.dtd"
   xmlns:inkscape="http://www.inkscape.org/namespaces/inkscape"
   id="svg3089"
   version="1.1"
   inkscape:version="0.92.1 r15371"
   width="320"
   height="220"
   sodipodi:docname="Project_kitchen_logo4.svg"
   inkscape:export-filename="C:\data\ProjectKitchen_Github\InfoTerminal\webpages\websites\03_pk_diashow\pk-dias\logo\anim\Project_kitchen_logo4.png"
   inkscape:export-xdpi="96"
   inkscape:export-ydpi="96">
  <metadata
     id="metadata3095">
    <rdf:RDF>
      <cc:Work
         rdf:about="">
        <dc:format>image/svg+xml</dc:format>
        <dc:type
           rdf:resource="http://purl.org/dc/dcmitype/StillImage" />
        <dc:title />
      </cc:Work>
    </rdf:RDF>
  </metadata>
  <defs
     id="defs3093" />
  <sodipodi:namedview
     pagecolor="#ffffff"
     bordercolor="#666666"
     borderopacity="1"
     objecttolerance="10"
     gridtolerance="10"
     guidetolerance="10"
     inkscape:pageopacity="0"
     inkscape:pageshadow="2"
     inkscape:window-width="1600"
     inkscape:window-height="837"
     id="namedview3091"
     showgrid="false"
     showguides="true"
     inkscape:guide-bbox="true"
     inkscape:zoom="4.36"
     inkscape:cx="211.87099"
     inkscape:cy="118.27106"
     inkscape:window-x="-9"
     inkscape:window-y="-9"
     inkscape:window-maximized="1"
     inkscape:current-layer="svg3089">
    <sodipodi:guide
       orientation="0,1"
       position="230.35714,417.85714"
       id="guide5354"
       inkscape:locked="false" />
  </sodipodi:namedview>
  <g
     inkscape:groupmode="layer"
     id="layer1"
     inkscape:label="Ebene"
     style="display:inline"
     transform="translate(0,-343)" />
  <rect
     style="display:inline;fill:#000000;fill-opacity:1;fill-rule:evenodd;stroke:none;stroke-width:0.41896024"
     id="rect3100"
     width="201.10092"
     height="178.05811"
     x="59.787895"
     y="23.853519"
     rx="22.26757"
     ry="22.26757" />
  <rect
     style="display:inline;fill:#ffffff;fill-opacity:1;stroke:none;stroke-width:0.41896024"
     id="rect3870"
     width="171.02892"
     height="148.41353"
     x="74.823891"
     y="38.675804"
     rx="7.422524"
     ry="7.422524" />
  <rect
     style="fill:#000000;fill-opacity:1;stroke:none;stroke-width:0.41896024"
     id="rect5314"
     width="187.44849"
     height="14.717116"
     x="63.925209"
     y="71.204506" />
  <rect
     style="fill:#000000;fill-opacity:1;stroke:none;stroke-width:0.49877688"
     id="rect5318"
     width="156.04622"
     height="88.411285"
     x="82.754845"
     y="92.493736"
     rx="8.2790108"
     ry="9.4317389" />
  <rect
     style="fill:#000000;fill-opacity:1;stroke:none;stroke-width:0.41896024"
     id="rect5374"
     width="61.957401"
     height="18.715902"
     x="90.968437"
     y="16.237707"
     rx="7.422524"
     ry="7.422524" />
  <rect
     style="fill:#000000;fill-opacity:1;stroke:none;stroke-width:0.41896024"
     id="rect5374-9"
     width="46.07439"
     height="18.715902"
     x="184.25694"
     y="16.237707"
     rx="7.422524"
     ry="7.422524" />
  <rect
     style="fill:#000000;fill-opacity:1;stroke:none;stroke-width:0.41896024"
     id="rect5394"
     width="24.65423"
     height="18.253613"
     x="82.245026"
     y="191.93382"
     rx="7.422524"
     ry="7.422524" />
  <rect
     style="fill:#000000;fill-opacity:1;stroke:none;stroke-width:0.41896024"
     id="rect5394-4"
     width="24.65423"
     height="18.253613"
     x="215.23566"
     y="191.93382"
     rx="7.422524"
     ry="7.422524" />
  <a
     id="a5436"
     transform="matrix(0.41896024,0,0,0.41896024,32.225383,-5.6556123)">
    <ellipse
       ry="19.345238"
       rx="27.380953"
       cy="146.63095"
       cx="156.54762"
       transform="matrix(0.70869563,0,0,1.003077,47.745866,-1.9392744)"
       id="path5320"
       style="fill:#000000;fill-opacity:1;stroke:none" />
  </a>
  <ellipse
     ry="7.184804"
     rx="7.1848035"
     cy="55.153477"
     cx="98.710388"
     style="fill:#ffffff;fill-opacity:1;stroke:none;stroke-width:0.31217894"
     id="path5320-8" />
  <a
     id="a5436-2"
     transform="matrix(0.41896024,0,0,0.41896024,55.638985,-5.6556123)">
    <ellipse
       transform="matrix(0.70869563,0,0,1.003077,47.745866,-1.9392744)"
       id="path5320-4"
       style="fill:#000000;fill-opacity:1;stroke:none"
       cx="156.54762"
       cy="146.63095"
       rx="27.380953"
       ry="19.345238" />
  </a>
  <ellipse
     style="fill:#ffffff;fill-opacity:1;stroke:none;stroke-width:0.31217894"
     id="path5320-8-5"
     cx="122.12399"
     cy="55.153473"
     rx="7.1848035"
     ry="7.1848044" />
  <a
     id="a5436-1"
     transform="matrix(0.41896024,0,0,0.41896024,79.052594,-5.6556123)">
    <ellipse
       transform="matrix(0.70869563,0,0,1.003077,47.745866,-1.9392744)"
       id="path5320-7"
       style="fill:#000000;fill-opacity:1;stroke:none"
       cx="156.54762"
       cy="146.63095"
       rx="27.380953"
       ry="19.345238" />
  </a>
  <ellipse
     style="fill:#ffffff;fill-opacity:1;stroke:none;stroke-width:0.31217894"
     id="path5320-8-1"
     cx="145.5376"
     cy="55.153473"
     rx="7.1848035"
     ry="7.1848044" />
  <a
     id="a5436-5"
     transform="matrix(0.41896024,0,0,0.41896024,102.46619,-5.6556123)">
    <ellipse
       transform="matrix(0.70869563,0,0,1.003077,47.745866,-1.9392744)"
       id="path5320-2"
       style="fill:#000000;fill-opacity:1;stroke:none"
       cx="156.54762"
       cy="146.63095"
       rx="27.380953"
       ry="19.345238" />
  </a>
  <ellipse
     style="fill:#ff0000;fill-opacity:1;stroke:none;stroke-width:0.31217894"
     id="path5320-8-7"
     cx="168.95119"
     cy="55.153473"
     rx="7.1848035"
     ry="7.1848044" />
  <a
     id="a5436-14"
     transform="matrix(0.41896024,0,0,0.41896024,156.24665,-5.6556123)">
    <ellipse
       transform="matrix(0.70869563,0,0,1.003077,47.745866,-1.9392744)"
       id="path5320-23"
       style="fill:#000000;fill-opacity:1;stroke:none"
       cx="156.54762"
       cy="146.63095"
       rx="27.380953"
       ry="19.345238" />
  </a>
  <ellipse
     style="fill:#ffffff;fill-opacity:1;stroke:none;stroke-width:0.31217894"
     id="path5320-8-2"
     cx="222.73164"
     cy="55.153473"
     rx="7.1848035"
     ry="7.1848044" />
  <path
     d="m 170.11289,108.74991 c 0.26377,0.53404 0.48882,1.08825 0.63341,1.66848 -0.50796,0.42739 -1.00591,0.86691 -1.51243,1.29416 0.0855,0.80835 -0.115,1.60317 -0.19928,2.393 0.39511,0.56101 0.83619,1.08798 1.20537,1.66634 -0.24393,0.48122 -0.5219,0.94414 -0.83757,1.38185 -0.7209,-0.0813 -1.42922,-0.33336 -2.15114,-0.34162 -0.57882,0.51665 -1.26978,0.87004 -1.94305,1.23903 -0.21995,0.68011 -0.369,1.3819 -0.55888,2.07051 -0.53062,0.13056 -1.07556,0.20863 -1.62295,0.18079 -0.3457,-0.65966 -0.68428,-1.32155 -1.05602,-1.96531 -0.72671,-0.13622 -1.42552,-0.39507 -2.0756,-0.74519 -0.69004,0.26568 -1.35459,0.5929 -2.04415,0.86292 -0.41367,-0.37807 -0.8104,-0.77542 -1.14693,-1.22441 0.30649,-0.66297 0.57912,-1.34138 0.87629,-2.00923 -0.34808,-0.62729 -0.48706,-1.33364 -0.71983,-2.00234 -0.58467,-0.35268 -1.20282,-0.64924 -1.81211,-0.9584 -4.6e-4,-0.61155 0.087,-1.21926 0.22412,-1.81324 0.67115,-0.18195 1.33743,-0.38236 2.01376,-0.54298 0.2896,-0.62907 0.6754,-1.20413 1.09805,-1.74806 -0.13348,-0.62664 -0.26433,-1.25649 -0.35767,-1.89031 0.38698,-0.4949 1.04175,-0.76269 1.5989,-1.05661 0.53265,0.3713 1.05641,0.75524 1.57145,1.15322 0.67129,-0.18051 1.36415,-0.28155 2.0595,-0.24862 0.43858,-0.49013 0.85769,-0.99863 1.29147,-1.49264 0.6041,0.16378 1.2755,0.27373 1.78359,0.64764 0.056,0.62464 0.0582,1.25349 0.0924,1.88043 0.60928,0.43327 1.14769,0.95576 1.61237,1.54008 0.6591,0.008 1.3177,0.0518 1.97696,0.0608 z"
     id="path5594"
     inkscape:connector-curvature="0"
     style="fill:#ffffff;stroke-width:0.14515279" />
  <path
     d="m 162.12065,108.54084 c 1.30057,-0.29756 2.7463,0.10451 3.67673,1.06832 1.17573,1.16123 1.46749,3.08886 0.67641,4.54184 -0.73302,1.51539 -2.53872,2.36018 -4.1775,2.0481 -1.80715,-0.30192 -3.2311,-2.02488 -3.19771,-3.85526 -0.0348,-1.77086 1.30492,-3.41834 3.02207,-3.803 z"
     id="path5596"
     inkscape:connector-curvature="0"
     style="fill:#000000;stroke-width:0.14515279" />
  <path
     d="m 172.42914,117.18354 c 0.67555,-0.75823 1.43583,-1.44487 2.2735,-2.0227 1.02989,0.66938 2.09111,1.29513 3.12606,1.95911 0.48038,-0.22349 0.96034,-0.44791 1.45538,-0.63588 0.22431,-1.21745 0.47495,-2.43047 0.67817,-3.65255 0.9871,-0.22994 2.00241,-0.31244 3.01384,-0.32277 0.45594,1.08461 0.87142,2.18734 1.34411,3.2654 0.0777,0.22968 0.36965,0.1842 0.55917,0.24535 0.38311,0.0428 0.75883,0.22806 1.14737,0.18334 0.88676,-0.81937 1.74105,-1.67439 2.64399,-2.47852 0.89828,0.43169 1.80124,0.88499 2.57946,1.51604 -0.29056,1.18441 -0.59899,2.36375 -0.86037,3.55413 0.38772,0.39755 0.77009,0.80247 1.11709,1.23786 1.21421,-0.15095 2.42878,-0.30393 3.64033,-0.47616 0.5397,0.84163 0.92496,1.77169 1.23659,2.71848 -0.91052,0.79348 -1.84813,1.55637 -2.76117,2.3463 -0.0257,0.57754 0.15228,1.15095 0.14041,1.73289 1.05102,0.64901 2.15931,1.19319 3.24085,1.78491 -0.0939,0.98758 -0.31112,1.95955 -0.60201,2.90555 -1.24077,0.0986 -2.48448,0.15296 -3.72393,0.26844 -0.24846,0.50973 -0.53904,0.99777 -0.86048,1.465 0.51369,1.1433 1.08037,2.2632 1.612,3.39909 -0.64074,0.73702 -1.3965,1.3599 -2.17142,1.94832 -1.09243,-0.61958 -2.14693,-1.30352 -3.21785,-1.95797 -0.51293,0.23298 -1.03245,0.44919 -1.55112,0.66655 -0.22671,1.23163 -0.46878,2.46172 -0.68536,3.69506 -0.95847,0.22786 -1.95038,0.28792 -2.93228,0.30219 -0.50523,-1.1689 -0.95085,-2.36416 -1.46049,-3.53173 -0.51904,-0.0762 -1.02172,-0.22459 -1.53448,-0.31948 -0.97676,0.77294 -1.82552,1.7184 -2.75871,2.54761 -0.93435,-0.29205 -1.77217,-0.90923 -2.59328,-1.4528 0.27551,-1.24317 0.60498,-2.47307 0.90156,-3.71163 -0.35726,-0.38716 -0.70146,-0.7836 -1.03468,-1.18961 -1.25688,0.13855 -2.50931,0.31845 -3.76338,0.4835 -0.51093,-0.86386 -0.92071,-1.79073 -1.20466,-2.75365 0.98024,-0.80562 1.94665,-1.62821 2.90971,-2.45549 -0.0774,-0.50958 -0.12066,-1.02383 -0.16395,-1.53805 -1.10633,-0.58654 -2.19776,-1.19969 -3.30529,-1.78538 0.0887,-0.99991 0.3319,-1.97791 0.62688,-2.93571 1.25906,-0.13297 2.52788,-0.16958 3.78795,-0.30863 0.21507,-0.44146 0.48998,-0.84888 0.72882,-1.27697 -0.43609,-1.17177 -1.06464,-2.27616 -1.57851,-3.41937 z"
     id="path5598"
     inkscape:connector-curvature="0"
     style="fill:#ffffff;stroke-width:0.14515279" />
  <path
     d="m 181.55371,119.11232 c 1.66491,-0.32224 3.43432,-0.0668 4.9352,0.72141 2.03068,1.04219 3.54318,3.04095 3.95832,5.28936 0.44416,2.20488 -0.15242,4.59845 -1.60104,6.32141 -1.11042,1.31363 -2.6592,2.28035 -4.35313,2.61275 -1.4704,0.26128 -3.02499,0.16402 -4.40975,-0.41659 -2.26148,-0.89269 -3.99895,-2.96402 -4.52876,-5.33291 -0.51675,-2.16858 -0.006,-4.5549 1.35282,-6.32286 1.11913,-1.49217 2.81742,-2.52711 4.64634,-2.87257 z"
     id="path5600"
     inkscape:connector-curvature="0"
     style="fill:#000000;stroke-width:0.14515279" />
  <path
     d="m 151.29025,119.77198 c 1.50884,0.29691 3.00691,0.64665 4.51451,0.94621 0.0735,1.34654 0.11336,2.69626 0.1454,4.04549 1.36314,0.50395 2.66271,1.16102 3.90298,1.91514 1.10394,-0.73021 2.19051,-1.48806 3.30314,-2.20285 1.13411,1.03322 2.26436,2.06784 3.41948,3.07734 -0.56814,1.17154 -1.24026,2.29014 -1.81057,3.46226 0.95949,1.146 1.76077,2.41425 2.46547,3.72962 1.27059,-0.10986 2.54489,-0.19382 3.81945,-0.26155 0.4801,1.46538 0.94148,2.93629 1.42606,4.399 -1.08098,0.66878 -2.16668,1.32728 -3.22699,2.02687 0.14281,1.48427 0.30135,2.97606 0.17032,4.4677 1.15462,0.57325 2.31495,1.13792 3.47833,1.69284 -0.31098,1.52142 -0.61351,3.04529 -0.98839,4.55225 -1.30241,0.0351 -2.60397,0.0819 -3.90543,0.13516 -0.54806,1.3678 -1.24794,2.6662 -2.02797,3.91338 0.76211,1.07092 1.47293,2.17844 2.20811,3.26864 -1.01292,1.14545 -2.07332,2.24888 -3.05326,3.42297 -1.22605,-0.57194 -2.39626,-1.25724 -3.5985,-1.87897 -1.13166,0.88913 -2.35446,1.6526 -3.62629,2.32342 0.11044,1.34006 0.17611,2.68285 0.28268,4.02426 -1.45707,0.50982 -2.9429,0.93509 -4.40202,1.43909 -0.7292,-1.15653 -1.44615,-2.31847 -2.17343,-3.47569 -1.28105,0.17888 -2.57597,0.27228 -3.87023,0.21636 -0.15833,0.005 -0.39303,-0.0496 -0.44712,0.16103 -0.55967,1.17237 -1.15777,2.32959 -1.70327,3.51035 -1.51728,-0.29609 -3.02509,-0.64567 -4.53938,-0.9581 -0.0681,-1.36806 -0.0946,-2.7388 -0.15491,-4.10635 -1.30398,-0.53681 -2.57129,-1.16716 -3.75529,-1.93465 -1.12995,0.76445 -2.26719,1.52058 -3.39645,2.28696 -1.175,-0.99487 -2.29914,-2.05232 -3.44487,-3.08144 0.60206,-1.21164 1.26571,-2.39383 1.88026,-3.59788 l 0.008,-0.12156 c -0.83453,-1.09107 -1.57676,-2.25061 -2.20775,-3.47118 -1.38326,0.0897 -2.76777,0.18213 -4.15013,0.28681 -0.48738,-1.47371 -0.98831,-2.94262 -1.42144,-4.43219 1.19821,-0.72213 2.37035,-1.48732 3.56857,-2.20945 -0.14476,-1.33555 -0.25146,-2.68347 -0.14183,-4.02607 -1.24323,-0.73787 -2.58963,-1.28692 -3.87126,-1.95794 0.33655,-1.50759 0.63594,-3.0249 0.97969,-4.53067 1.44526,-0.0344 2.89006,-0.0947 4.33509,-0.14202 0.51399,-1.23607 1.13803,-2.41949 1.82828,-3.5632 -0.81567,-1.20113 -1.64421,-2.39552 -2.44127,-3.60865 1.03046,-1.14511 2.0642,-2.28703 3.09596,-3.4315 1.2983,0.65638 2.5683,1.36848 3.85971,2.0393 1.05957,-0.81581 2.15565,-1.5868 3.3514,-2.18943 -0.092,-1.43905 -0.20679,-2.87772 -0.28846,-4.31826 1.46292,-0.47161 2.92301,-0.95744 4.38595,-1.42906 0.7629,1.19035 1.51299,2.39067 2.24891,3.59708 1.35919,-0.20426 2.73567,-0.31013 4.10966,-0.26275 0.65893,-1.22947 1.23783,-2.50047 1.8588,-3.74812 z"
     id="path5602"
     inkscape:connector-curvature="0"
     style="fill:#ffffff;stroke-width:0.14515279" />
  <path
     d="m 146.42819,130.01039 c 2.78983,-0.44271 5.70595,-0.0334 8.26935,1.15106 2.43276,1.11477 4.52442,2.94515 6.00933,5.16744 1.41233,2.19326 2.26438,4.75811 2.35728,7.37086 0.11757,3.05837 -0.75625,6.15593 -2.49372,8.68014 -1.1293,1.65038 -2.59824,3.07143 -4.29943,4.12379 -2.67952,1.67506 -5.92369,2.43131 -9.06624,2.09891 -2.54453,-0.24821 -5.01794,-1.19316 -7.07475,-2.71 -2.25858,-1.6562 -4.02799,-3.97864 -4.99471,-6.60881 -0.89995,-2.37906 -1.11913,-5.00051 -0.68948,-7.50295 0.54433,-3.14256 2.17294,-6.0848 4.53458,-8.22581 2.05536,-1.88698 4.69278,-3.12369 7.44779,-3.54463 z"
     id="path5604"
     inkscape:connector-curvature="0"
     style="fill:#000000;stroke-width:0.14515279" />
</svg>
