<?xml version="1.0" encoding="UTF-8" standalone="no"?>
<!-- Created with Inkscape (http://www.inkscape.org/) -->

<svg
   xmlns:dc="http://purl.org/dc/elements/1.1/"
   xmlns:cc="http://creativecommons.org/ns#"
   xmlns:rdf="http://www.w3.org/1999/02/22-rdf-syntax-ns#"
   xmlns:svg="http://www.w3.org/2000/svg"
   xmlns="http://www.w3.org/2000/svg"
   xmlns:sodipodi="http://sodipodi.sourceforge.net/DTD/sodipodi-0.dtd"
   xmlns:inkscape="http://www.inkscape.org/namespaces/inkscape"
   id="svg3089"
   version="1.1"
   inkscape:version="0.92.1 r15371"
   width="1000"
   height="1000"
   sodipodi:docname="gears.svg"
   inkscape:export-filename="C:\data\ProjectKitchen_Github\InfoTerminal\webpages\websites\04\pk-dias\logo\anim\gears.png"
   inkscape:export-xdpi="96"
   inkscape:export-ydpi="96">
  <metadata
     id="metadata3095">
    <rdf:RDF>
      <cc:Work
         rdf:about="">
        <dc:format>image/svg+xml</dc:format>
        <dc:type
           rdf:resource="http://purl.org/dc/dcmitype/StillImage" />
        <dc:title></dc:title>
      </cc:Work>
    </rdf:RDF>
  </metadata>
  <defs
     id="defs3093" />
  <sodipodi:namedview
     pagecolor="#ffffff"
     bordercolor="#666666"
     borderopacity="1"
     objecttolerance="10"
     gridtolerance="10"
     guidetolerance="10"
     inkscape:pageopacity="0"
     inkscape:pageshadow="2"
     inkscape:window-width="1600"
     inkscape:window-height="837"
     id="namedview3091"
     showgrid="false"
     showguides="true"
     inkscape:guide-bbox="true"
     inkscape:zoom="0.1926866"
     inkscape:cx="-284.0544"
     inkscape:cy="-6.4140557"
     inkscape:window-x="-9"
     inkscape:window-y="-9"
     inkscape:window-maximized="1"
     inkscape:current-layer="svg3089"
     inkscape:pagecheckerboard="true">
    <sodipodi:guide
       orientation="0,1"
       position="230.35714,417.85714"
       id="guide5354"
       inkscape:locked="false" />
  </sodipodi:namedview>
  <g
     inkscape:groupmode="layer"
     id="layer1"
     inkscape:label="Ebene"
     style="display:inline"
     transform="translate(0,437)" />
  <path
     d="m 511.18762,83.110353 c 7.09847,-2.61804 14.39979,-4.719991 21.92225,-5.77084 4.71999,6.987706 9.606,13.86503 14.32587,20.834318 10.32506,0 20.09695,3.595339 29.96106,5.715709 7.61468,-4.240736 14.86063,-9.108199 22.65974,-12.998486 5.75255,3.724397 11.22845,7.854373 16.3356,12.426896 -1.99119,8.99744 -6.12129,17.60784 -7.19068,26.71592 5.75254,8.00197 9.29263,17.20226 13.05387,26.19983 8.29678,3.68743 16.96244,6.50832 25.40683,9.82714 0.93996,6.8772 1.19781,13.86503 0.11432,20.74223 -8.79471,3.48458 -17.60784,6.8772 -26.23667,10.71223 -2.69184,8.99744 -6.89561,17.47866 -12.1872,25.2224 2.43373,9.07124 5.67875,17.90291 8.16786,26.97415 -5.32842,4.71999 -10.87812,9.2003 -16.99941,12.85089 -7.96501,-4.75682 -16.16971,-9.10807 -24.20851,-13.75439 -8.38901,3.55851 -17.49721,4.36979 -26.25496,6.41636 -5.23634,6.91404 -9.80886,14.32587 -14.52872,21.60877 -7.72545,-0.81167 -15.28475,-2.7288 -22.60449,-5.25475 -1.4013,-8.72092 -3.04216,-17.40499 -4.16694,-26.16274 -7.5593,-4.49885 -14.30744,-10.14076 -20.61317,-16.20667 -8.09394,0.8485 -16.22496,1.6594 -24.35586,1.99119 -5.73413,-5.54957 -8.24154,-14.1784 -11.21003,-21.60865 5.4021,-6.23192 10.95192,-12.3348 16.66751,-18.30849 -1.38276,-8.72091 -1.73308,-17.60784 -0.38742,-26.3473 -5.60508,-6.19497 -11.46813,-12.16866 -17.12846,-18.30837 2.87627,-7.41196 5.16253,-15.74571 10.56475,-21.66415 7.96501,0.12829 15.9116,0.93996 23.87648,1.34592 6.28731,-7.11689 13.60693,-13.21963 21.6089,-18.30837 0.97679,-8.315333 2.41518,-16.575413 3.41091,-24.890747 z"
     id="path5594"
     inkscape:connector-curvature="0"
     style="fill:#000000;fill-opacity:1;stroke-width:1.84375226" />
  <path
     d="m 534.87979,128.07951 c 16.52003,-3.77965 34.88391,1.32751 46.70237,13.56996 14.9343,14.75012 18.64027,39.23516 8.59186,57.69113 -9.31093,19.2487 -32.2472,29.97935 -53.06322,26.01527 -22.95469,-3.83504 -41.04191,-25.72033 -40.61779,-48.97009 -0.44204,-22.49372 16.57529,-43.42026 38.38678,-48.30627 z"
     id="path5596"
     inkscape:connector-curvature="0"
     style="fill:#ffffff;fill-opacity:1;stroke-width:1.84375226" />
  <path
     d="m 760.3339,182.87582 c 12.57436,-2.87628 25.49905,-4.38809 38.42374,-4.20378 5.73413,14.51043 12.11353,28.79946 17.93975,43.29134 6.61909,1.21686 13.23818,2.43373 19.74664,4.12997 11.2837,-10.95179 22.80721,-21.66402 33.9066,-32.81879 11.91068,4.88601 23.02849,11.5051 33.5747,18.84325 -3.26344,14.58398 -7.08005,29.05744 -10.12221,43.69692 -0.88534,2.94994 2.47069,4.62777 3.9825,6.65592 3.6506,3.26344 6.17655,7.94659 10.52779,10.34349 15.21095,-1.95448 30.34823,-4.51727 45.61443,-6.19509 6.1213,11.08097 12.13195,22.42005 15.54286,34.68105 -11.72624,10.12209 -23.60008,20.06 -35.06809,30.45874 1.0873,6.96941 2.06499,13.97566 2.45215,21.03717 13.68059,7.37499 27.37973,14.7317 41.18938,21.86687 -0.60843,12.68513 -3.46629,25.14886 -7.20897,37.24384 -15.26634,1.51194 -30.58792,2.50754 -45.85412,3.96409 -4.51727,5.78939 -6.89575,13.03533 -11.30225,18.97218 6.10275,14.45505 13.56996,28.24628 20.41032,42.33258 -8.24153,9.5322 -17.64468,17.995 -27.61942,25.64665 -13.56996,-8.11261 -26.84498,-16.70447 -40.5257,-24.63264 -6.32402,3.44787 -12.92469,6.36098 -19.69125,8.83168 -3.09754,15.61653 -5.47589,31.38065 -8.33375,47.05256 -12.05815,2.91312 -24.46662,3.79807 -36.81972,4.18524 -6.74814,-14.45505 -12.62974,-29.29726 -18.89851,-43.95503 -7.02467,-1.36433 -13.99408,-2.95007 -20.96349,-4.51713 -11.41276,11.08084 -22.97311,22.03276 -34.29377,33.20595 -11.59719,-4.70157 -22.30942,-11.37604 -32.57911,-18.45597 3.37408,-15.81938 7.55943,-31.47287 10.87812,-47.31067 -4.81221,-4.60936 -8.92364,-9.84569 -13.53312,-14.60252 -15.80096,0.81167 -31.54655,4.35125 -47.31067,6.06591 -7.52247,-9.90094 -11.65245,-22.45689 -16.15129,-34.12787 12.00289,-10.84129 24.46662,-21.14781 36.65382,-31.78624 -0.8485,-6.63751 -1.49339,-13.27501 -1.95435,-19.93094 -14.03092,-7.81754 -28.32007,-15.17411 -42.51688,-22.69671 1.06952,-12.70341 3.65059,-25.31461 7.79899,-37.37276 16.07749,-1.12414 32.13669,-2.52595 48.19576,-4.00093 2.94995,-5.84476 6.28718,-11.48668 9.62429,-17.12846 -7.1353,-14.21536 -13.92028,-28.5966 -21.07401,-42.81196 8.27837,-9.69809 17.99501,-18.03197 28.09881,-25.7757 14.0125,7.89133 27.41657,16.85194 41.48432,24.68789 5.47602,-2.98691 11.32066,-5.18095 16.94416,-7.85437 4.11156,-15.34 5.734,-31.39908 8.83155,-47.01573 z"
     id="path5598"
     inkscape:connector-curvature="0"
     style="fill:#000000;fill-opacity:1;stroke-width:1.84375226" />
  <path
     d="m 781.72139,262.36002 c 21.14794,-4.09314 43.62325,-0.84851 62.68765,9.16345 25.79399,13.23806 45.00599,38.6266 50.27916,67.18624 5.64179,28.00671 -1.93606,58.41019 -20.33665,80.29548 -14.10471,16.68593 -33.77755,28.96535 -55.2941,33.18754 -18.67724,3.31882 -38.42387,2.08341 -56.01329,-5.29159 -28.72566,-11.33908 -50.79526,-37.64942 -57.52498,-67.73941 -6.56384,-27.54562 -0.0762,-57.85701 17.18372,-80.3139 14.21535,-18.95377 35.78728,-32.09973 59.01849,-36.48781 z"
     id="path5600"
     inkscape:connector-curvature="0"
     style="fill:#ffffff;fill-opacity:1;stroke-width:1.84375226" />
  <path
     d="m 259.73666,285.46218 c 18.91692,-4.86747 37.99974,-9.07124 56.91667,-13.90187 8.22312,15.02664 16.07749,30.27443 23.83977,45.55918 18.38217,-1.69625 36.87497,-1.29067 55.22031,0.55254 8.64724,-14.41808 16.94415,-29.05756 25.7757,-43.34659 18.6587,5.62337 37.28068,11.28383 56.05001,16.52003 -0.0889,16.53845 -1.65928,33.04007 -1.76992,49.59694 17.27594,7.87279 33.40881,18.01342 48.69343,29.22345 13.95725,-8.22312 28.0988,-16.16971 42.33258,-23.93186 13.53312,14.15997 26.88193,28.48596 40.45189,42.59068 -8.72091,13.58838 -17.55246,27.08466 -25.86779,40.91286 9.77188,16.22496 19.76505,32.45005 26.43939,50.26062 16.37256,0.24007 32.76341,0.35058 49.13597,0.33279 4.77538,19.13808 9.66126,38.25786 13.62534,57.58036 -14.73157,7.54089 -29.38934,15.21095 -44.0104,22.95469 1.21687,18.67724 0.31374,37.39131 -1.78846,55.95792 14.60251,8.09406 28.818,16.88877 43.21766,25.35158 -5.32842,18.67724 -11.4313,37.1332 -16.22509,55.95791 -17.18372,0.1664 -34.34902,-1.27224 -51.53287,-1.80688 -8.09406,16.39098 -17.9212,31.84162 -28.81787,46.49939 8.61041,14.74999 16.72289,29.77663 25.29633,44.56346 -13.90187,13.82819 -28.5966,26.8451 -42.55385,40.61791 -14.69461,-9.25568 -29.2787,-18.64028 -43.95502,-27.91437 -13.69901,9.07124 -28.025,17.2391 -43.16215,23.69217 -1.78846,0.92218 -4.77538,1.58561 -4.24074,4.296 0.0127,16.50149 -0.49793,33.03994 -0.27691,49.55997 -19.00914,4.92284 -38.2026,9.182 -57.267,13.90186 -8.2785,-15.30303 -16.09591,-30.86431 -24.28219,-46.20431 -17.88437,0.99585 -35.86095,0.71894 -53.63482,-1.58574 -8.75775,14.95284 -17.64468,29.85043 -26.38401,44.82169 -18.91693,-4.95968 -37.59416,-10.91508 -56.36349,-16.42782 0.25785,-17.18372 1.38275,-34.36756 1.82529,-51.53286 l -0.57159,-1.43814 c -15.54286,-7.92817 -30.40348,-17.14688 -44.32377,-27.67468 -15.35854,8.61028 -30.71697,17.25752 -45.98317,26.03369 -13.6623,-14.21536 -27.45353,-28.30153 -40.58108,-42.99626 9.77189,-14.84221 19.00915,-30.03474 28.78104,-44.87695 -8.97902,-14.5103 -17.58943,-29.37092 -23.69217,-45.35632 -18.29008,-1.64086 -36.72763,-0.55254 -55.091379,-1.21686 -4.406503,-19.11966 -9.292511,-38.14722 -13.606922,-57.28542 16.37256,-8.31534 32.597522,-16.92561 48.896281,-25.38842 -0.885337,-16.98099 -0.22102,-33.96186 1.41972,-50.85064 -15.930017,-9.29263 -31.97067,-18.43755 -47.753216,-27.96975 5.531277,-18.76945 11.117809,-37.52036 16.667632,-56.28982 18.474385,0.4052 36.930224,1.60403 55.404734,2.21259 7.66994,-15.1557 16.00369,-29.9979 26.40256,-43.45735 -8.94231,-15.98527 -18.1426,-31.84149 -26.97415,-47.90069 14.17839,-13.42249 28.24627,-26.99245 42.42466,-40.41493 15.26633,9.4584 30.44045,19.10123 45.48551,28.89154 14.45491,-9.79031 29.64744,-18.54818 45.65126,-25.53602 0.81167,-17.69993 0.47887,-35.43683 0.75578,-53.13689 z"
     id="path5602"
     inkscape:connector-curvature="0"
     style="fill:#000100;fill-opacity:1;stroke-width:1.84375226" />
  <path
     d="m 335.55184,400.78892 c 35.43683,-5.62337 72.47782,-0.42426 105.03851,14.62093 30.90128,14.15997 57.46985,37.40973 76.3314,65.63759 17.93962,27.85911 28.76249,60.43821 29.94252,93.62575 1.49339,38.84787 -9.606,78.19354 -31.6756,110.25643 -14.34454,20.96337 -33.00323,39.01375 -54.612,52.38099 -34.03566,21.27686 -75.24359,30.88286 -115.16072,26.66066 -32.321,-3.1528 -63.73862,-15.15569 -89.86452,-34.42282 -28.68882,-21.0373 -51.16413,-50.53727 -63.44355,-83.94608 -11.4313,-30.21917 -14.21535,-63.51722 -8.75788,-95.30358 6.91416,-39.91727 27.60101,-77.29003 57.59891,-104.48546 26.10749,-23.9687 59.60839,-39.67757 94.60293,-45.02441 z"
     id="path5604"
     inkscape:connector-curvature="0"
     style="fill:#fffeff;fill-opacity:1;stroke-width:1.84375226" />
</svg>
